<mxfile host="app.diagrams.net" modified="2022-11-11T10:04:54.828Z" agent="5.0 (Windows NT 10.0; Win64; x64) AppleWebKit/537.36 (KHTML, like Gecko) Chrome/107.0.0.0 Safari/537.36" etag="nNSWjXGuL_JXVxWx83jC" version="20.5.3" type="github">
  <diagram id="0ozn_xqvC4fL78FhbusS" name="第 1 页">
    <mxGraphModel dx="2942" dy="1164" grid="1" gridSize="10" guides="1" tooltips="1" connect="1" arrows="1" fold="1" page="1" pageScale="1" pageWidth="1169" pageHeight="827" math="0" shadow="0">
      <root>
        <mxCell id="0" />
        <mxCell id="1" parent="0" />
        <mxCell id="nqdfyMP8T36QqYavoYLO-1" value="" style="swimlane;startSize=0;" vertex="1" parent="1">
          <mxGeometry x="60" y="50" width="750" height="240" as="geometry" />
        </mxCell>
        <mxCell id="nqdfyMP8T36QqYavoYLO-2" value="首页" style="text;html=1;align=center;verticalAlign=middle;resizable=0;points=[];autosize=1;strokeColor=none;fillColor=none;" vertex="1" parent="nqdfyMP8T36QqYavoYLO-1">
          <mxGeometry x="30" y="20" width="50" height="30" as="geometry" />
        </mxCell>
        <mxCell id="nqdfyMP8T36QqYavoYLO-3" value="集群管理" style="text;html=1;align=center;verticalAlign=middle;resizable=0;points=[];autosize=1;strokeColor=none;fillColor=none;" vertex="1" parent="nqdfyMP8T36QqYavoYLO-1">
          <mxGeometry x="150" y="20" width="70" height="30" as="geometry" />
        </mxCell>
        <mxCell id="nqdfyMP8T36QqYavoYLO-4" value="ETCD管理" style="text;html=1;align=center;verticalAlign=middle;resizable=0;points=[];autosize=1;strokeColor=#82b366;fillColor=#d5e8d4;" vertex="1" parent="nqdfyMP8T36QqYavoYLO-1">
          <mxGeometry x="75" y="20" width="80" height="30" as="geometry" />
        </mxCell>
        <mxCell id="nqdfyMP8T36QqYavoYLO-5" value="文件系统" style="text;html=1;align=center;verticalAlign=middle;resizable=0;points=[];autosize=1;strokeColor=none;fillColor=none;" vertex="1" parent="nqdfyMP8T36QqYavoYLO-1">
          <mxGeometry x="230" y="20" width="70" height="30" as="geometry" />
        </mxCell>
        <mxCell id="nqdfyMP8T36QqYavoYLO-6" value="存储服务" style="text;html=1;align=center;verticalAlign=middle;resizable=0;points=[];autosize=1;strokeColor=none;fillColor=none;" vertex="1" parent="nqdfyMP8T36QqYavoYLO-1">
          <mxGeometry x="320" y="20" width="70" height="30" as="geometry" />
        </mxCell>
        <mxCell id="nqdfyMP8T36QqYavoYLO-7" value="etcd-cluster-1" style="text;html=1;align=center;verticalAlign=middle;resizable=0;points=[];autosize=1;strokeColor=none;fillColor=none;" vertex="1" parent="nqdfyMP8T36QqYavoYLO-1">
          <mxGeometry x="30" y="120" width="100" height="30" as="geometry" />
        </mxCell>
        <mxCell id="nqdfyMP8T36QqYavoYLO-8" value="集群名称" style="text;html=1;align=center;verticalAlign=middle;resizable=0;points=[];autosize=1;strokeColor=none;fillColor=none;" vertex="1" parent="nqdfyMP8T36QqYavoYLO-1">
          <mxGeometry x="35" y="75" width="70" height="30" as="geometry" />
        </mxCell>
        <mxCell id="nqdfyMP8T36QqYavoYLO-9" value="集群状态" style="text;html=1;align=center;verticalAlign=middle;resizable=0;points=[];autosize=1;strokeColor=none;fillColor=none;" vertex="1" parent="nqdfyMP8T36QqYavoYLO-1">
          <mxGeometry x="180" y="75" width="70" height="30" as="geometry" />
        </mxCell>
        <mxCell id="nqdfyMP8T36QqYavoYLO-11" value="服务器(个)" style="text;html=1;align=center;verticalAlign=middle;resizable=0;points=[];autosize=1;strokeColor=none;fillColor=none;" vertex="1" parent="nqdfyMP8T36QqYavoYLO-1">
          <mxGeometry x="310" y="75" width="80" height="30" as="geometry" />
        </mxCell>
        <mxCell id="nqdfyMP8T36QqYavoYLO-14" value="扩展&amp;nbsp; |&amp;nbsp; 删除" style="text;html=1;align=center;verticalAlign=middle;resizable=0;points=[];autosize=1;strokeColor=none;fillColor=none;" vertex="1" parent="nqdfyMP8T36QqYavoYLO-1">
          <mxGeometry x="435" y="120" width="90" height="30" as="geometry" />
        </mxCell>
        <mxCell id="nqdfyMP8T36QqYavoYLO-10" value="运行中" style="text;html=1;align=center;verticalAlign=middle;resizable=0;points=[];autosize=1;strokeColor=none;fillColor=none;" vertex="1" parent="nqdfyMP8T36QqYavoYLO-1">
          <mxGeometry x="185" y="120" width="60" height="30" as="geometry" />
        </mxCell>
        <mxCell id="nqdfyMP8T36QqYavoYLO-12" value="3" style="text;html=1;align=center;verticalAlign=middle;resizable=0;points=[];autosize=1;strokeColor=none;fillColor=none;" vertex="1" parent="nqdfyMP8T36QqYavoYLO-1">
          <mxGeometry x="330" y="120" width="30" height="30" as="geometry" />
        </mxCell>
        <mxCell id="nqdfyMP8T36QqYavoYLO-16" value="新建ETCD集群" style="text;html=1;align=center;verticalAlign=middle;resizable=0;points=[];autosize=1;strokeColor=#82b366;fillColor=#d5e8d4;" vertex="1" parent="nqdfyMP8T36QqYavoYLO-1">
          <mxGeometry x="600" y="40" width="100" height="30" as="geometry" />
        </mxCell>
        <mxCell id="nqdfyMP8T36QqYavoYLO-13" value="操作" style="text;html=1;align=center;verticalAlign=middle;resizable=0;points=[];autosize=1;strokeColor=none;fillColor=none;" vertex="1" parent="1">
          <mxGeometry x="515" y="125" width="50" height="30" as="geometry" />
        </mxCell>
        <mxCell id="nqdfyMP8T36QqYavoYLO-15" value="" style="swimlane;startSize=0;" vertex="1" parent="1">
          <mxGeometry x="880" y="50" width="360" height="240" as="geometry" />
        </mxCell>
        <mxCell id="nqdfyMP8T36QqYavoYLO-18" value="ETCD集群名称：" style="text;html=1;align=center;verticalAlign=middle;resizable=0;points=[];autosize=1;strokeColor=none;fillColor=none;" vertex="1" parent="nqdfyMP8T36QqYavoYLO-15">
          <mxGeometry x="20" y="100" width="120" height="30" as="geometry" />
        </mxCell>
        <mxCell id="nqdfyMP8T36QqYavoYLO-19" value="etcd-cluster-1" style="rounded=0;whiteSpace=wrap;html=1;" vertex="1" parent="nqdfyMP8T36QqYavoYLO-15">
          <mxGeometry x="130" y="100" width="120" height="30" as="geometry" />
        </mxCell>
        <mxCell id="nqdfyMP8T36QqYavoYLO-20" value="关闭" style="rounded=0;whiteSpace=wrap;html=1;" vertex="1" parent="nqdfyMP8T36QqYavoYLO-15">
          <mxGeometry x="80" y="170" width="70" height="30" as="geometry" />
        </mxCell>
        <mxCell id="nqdfyMP8T36QqYavoYLO-21" value="确定" style="rounded=0;whiteSpace=wrap;html=1;" vertex="1" parent="nqdfyMP8T36QqYavoYLO-15">
          <mxGeometry x="190" y="170" width="70" height="30" as="geometry" />
        </mxCell>
        <mxCell id="nqdfyMP8T36QqYavoYLO-17" value="新建ETCD集群" style="text;html=1;align=center;verticalAlign=middle;resizable=0;points=[];autosize=1;strokeColor=none;fillColor=none;" vertex="1" parent="1">
          <mxGeometry x="880" y="15" width="100" height="30" as="geometry" />
        </mxCell>
        <mxCell id="nqdfyMP8T36QqYavoYLO-22" value="" style="swimlane;startSize=0;" vertex="1" parent="1">
          <mxGeometry x="60" y="380" width="390" height="280" as="geometry" />
        </mxCell>
        <mxCell id="nqdfyMP8T36QqYavoYLO-24" value="集群名称：" style="text;html=1;align=center;verticalAlign=middle;resizable=0;points=[];autosize=1;strokeColor=none;fillColor=none;" vertex="1" parent="nqdfyMP8T36QqYavoYLO-22">
          <mxGeometry x="35" y="50" width="80" height="30" as="geometry" />
        </mxCell>
        <mxCell id="nqdfyMP8T36QqYavoYLO-25" value="etcd-cluster-1" style="rounded=0;whiteSpace=wrap;html=1;" vertex="1" parent="nqdfyMP8T36QqYavoYLO-22">
          <mxGeometry x="125" y="50" width="120" height="30" as="geometry" />
        </mxCell>
        <mxCell id="nqdfyMP8T36QqYavoYLO-26" value="添加节点：" style="text;html=1;align=center;verticalAlign=middle;resizable=0;points=[];autosize=1;strokeColor=none;fillColor=none;" vertex="1" parent="nqdfyMP8T36QqYavoYLO-22">
          <mxGeometry x="35" y="95" width="80" height="30" as="geometry" />
        </mxCell>
        <mxCell id="nqdfyMP8T36QqYavoYLO-27" value="172.0.0.1&amp;nbsp; √&lt;br&gt;172.0.0.2&amp;nbsp; √&lt;br&gt;172.0.0.3&amp;nbsp; √" style="rounded=0;whiteSpace=wrap;html=1;" vertex="1" parent="nqdfyMP8T36QqYavoYLO-22">
          <mxGeometry x="125" y="100" width="120" height="90" as="geometry" />
        </mxCell>
        <mxCell id="nqdfyMP8T36QqYavoYLO-28" value="关闭" style="rounded=0;whiteSpace=wrap;html=1;" vertex="1" parent="nqdfyMP8T36QqYavoYLO-22">
          <mxGeometry x="70" y="220" width="90" height="30" as="geometry" />
        </mxCell>
        <mxCell id="nqdfyMP8T36QqYavoYLO-29" value="确定" style="rounded=0;whiteSpace=wrap;html=1;" vertex="1" parent="nqdfyMP8T36QqYavoYLO-22">
          <mxGeometry x="210" y="220" width="90" height="30" as="geometry" />
        </mxCell>
        <mxCell id="nqdfyMP8T36QqYavoYLO-23" value="扩展ETCD集群" style="text;html=1;align=center;verticalAlign=middle;resizable=0;points=[];autosize=1;strokeColor=none;fillColor=none;" vertex="1" parent="1">
          <mxGeometry x="60" y="340" width="100" height="30" as="geometry" />
        </mxCell>
        <mxCell id="nqdfyMP8T36QqYavoYLO-30" value="" style="swimlane;startSize=0;" vertex="1" parent="1">
          <mxGeometry x="520" y="380" width="290" height="280" as="geometry" />
        </mxCell>
        <mxCell id="nqdfyMP8T36QqYavoYLO-32" value="确定要删除ETCD集群吗？" style="text;html=1;align=center;verticalAlign=middle;resizable=0;points=[];autosize=1;strokeColor=none;fillColor=none;" vertex="1" parent="nqdfyMP8T36QqYavoYLO-30">
          <mxGeometry x="20" y="65" width="160" height="30" as="geometry" />
        </mxCell>
        <mxCell id="nqdfyMP8T36QqYavoYLO-33" value="确定" style="whiteSpace=wrap;html=1;" vertex="1" parent="nqdfyMP8T36QqYavoYLO-30">
          <mxGeometry x="155" y="180" width="70" height="30" as="geometry" />
        </mxCell>
        <mxCell id="nqdfyMP8T36QqYavoYLO-34" value="取消" style="whiteSpace=wrap;html=1;" vertex="1" parent="nqdfyMP8T36QqYavoYLO-30">
          <mxGeometry x="65" y="180" width="70" height="30" as="geometry" />
        </mxCell>
        <mxCell id="nqdfyMP8T36QqYavoYLO-31" value="删除ETCD集群（占时不支持）" style="text;html=1;align=center;verticalAlign=middle;resizable=0;points=[];autosize=1;strokeColor=none;fillColor=none;" vertex="1" parent="1">
          <mxGeometry x="510" y="340" width="190" height="30" as="geometry" />
        </mxCell>
      </root>
    </mxGraphModel>
  </diagram>
</mxfile>
